<svg width="100%" height="100%" viewBox="0 0 200 300" fill="none" xmlns="http://www.w3.org/2000/svg">
<path id="median" opacity="0.3" d="M60.4545 17.9199C60.4545 57.544 65.0418 110.376 65.0418 150C65.0418 189.624 56.5 242.456 56.5 282.08H143.5C143.5 242.456 134.958 189.624 134.958 150C134.958 110.376 139.545 57.544 139.545 17.9199H60.4545Z" fill="#9ABBD9"/>
<path d="M39.2866 282.08C41.2866 249.865 47.7866 205.756 58.7866 185.436C69.7866 165.116 74.7866 145.787 66.7866 105.643C58.7866 65.4984 61.2865 37.7442 66.7866 17.9198" stroke="#B57BDC" stroke-width="6"/>
<path d="M160.713 282.08C158.713 249.865 152.213 205.756 141.213 185.436C130.213 165.116 125.213 145.787 133.213 105.643C141.213 65.4984 138.713 37.7442 133.213 17.9198" stroke="#B57BDC" stroke-width="6"/>
</svg>
