<svg width="100%" height="100%" viewBox="0 0 200 300" fill="none" xmlns="http://www.w3.org/2000/svg">
<path id="median" opacity="0.3" d="M60.4545 17.9199C60.4545 57.544 65.0418 110.376 65.0418 150C65.0418 189.624 56.5 242.456 56.5 282.08H143.5C143.5 242.456 134.958 189.624 134.958 150C134.958 110.376 139.545 57.544 139.545 17.9199H60.4545Z" fill="#9ABBD9"/>
<path d="M159.169 17.9199C157.169 50.8766 145.669 78.256 134.669 99.044C123.669 119.832 122.169 150.761 142.169 187.773C162.007 224.486 165.169 257.743 162.669 282.08" stroke="#d96f32" stroke-width="6"/>
<path d="M40.8311 17.9199C42.8311 50.8766 54.3311 78.256 65.3311 99.044C76.3311 119.832 77.8313 150.761 57.8312 187.773C37.9934 224.486 34.8313 257.743 37.3313 282.08" stroke="#d96f32" stroke-width="6"/>
</svg>
