<svg width="100%" height="100%" viewBox="0 0 200 300" fill="none" xmlns="http://www.w3.org/2000/svg">
<path opacity="0.3" d="M60.4543 17.9199C60.4543 57.544 65.0416 110.376 65.0416 150C65.0416 189.624 56.4998 242.456 56.4998 282.08H143.5C143.5 242.456 134.958 189.624 134.958 150C134.958 110.376 139.545 57.544 139.545 17.9199H60.4543Z" fill="#9ABBD9"/>
<path d="M80.9997 17.9199C77.9997 36.7944 78.1287 81.7457 80.9997 112.292C84.4997 149.531 39.6881 152.542 41.9997 205.134C44.4997 262.012 67.691 282.08 99.9997 282.08C132.308 282.08 155.5 262.012 158 205.134C160.311 152.542 115.5 149.531 119 112.292C121.871 81.7457 122 36.7944 119 17.9199" stroke="#B57BDC" stroke-width="6"/>
</svg>
