<svg width="100%" height="100%" viewBox="0 0 200 300" fill="none" xmlns="http://www.w3.org/2000/svg">
<path id="median" opacity="0.3" d="M60.4545 17.9199C60.4545 57.544 65.0418 110.376 65.0418 150C65.0418 189.624 56.5 242.456 56.5 282.08H143.5C143.5 242.456 134.958 189.624 134.958 150C134.958 110.376 139.545 57.544 139.545 17.9199H60.4545Z" fill="#9ABBD9"/>
<path d="M160.713 17.9199C158.713 50.1346 152.213 94.2439 141.213 114.564C130.213 134.884 125.213 154.213 133.213 194.357C141.213 234.502 138.713 262.256 133.213 282.08" stroke="#d96f32" stroke-width="6"/>
<path d="M39.2866 17.9199C41.2866 50.1346 47.7866 94.2439 58.7866 114.564C69.7866 134.884 74.7866 154.213 66.7866 194.357C58.7866 234.502 61.2865 262.256 66.7866 282.08" stroke="#d96f32" stroke-width="6"/>
</svg>
