<?xml version="1.0" encoding="UTF-8"?>
<svg xmlns="http://www.w3.org/2000/svg" version="1.1" viewBox="0 0 2750.6 2377.1">
  <!-- Generator: Adobe Illustrator 30.0.0, SVG Export Plug-In . SVG Version: 2.1.1 Build 123)  -->
  <defs>
    <style>
      .st0 {
        fill: none;
        stroke: #9ABBD9;
        stroke-width: 4;
        stroke-miterlimit: 10;
      }
    </style>
  </defs>
  <g id="size16">
    <path class="st0" d="M1359,2253.8h961.1c6.2-364.7-37.9-492.1-90.5-755-52.6-262.9,19.4-584.1,19.4-584.1-543.4,29.1-281.2-620.7-281.2-620.7l-390.6-110s-7.5,252.8-218.2,253.5c-210.7-.6-218.2-253.5-218.2-253.5l-390.6,110s262.3,649.7-281.2,620.7c0,0,71.9,321.2,19.4,584.1-52.6,262.9-96.6,390.3-90.5,755h961.1"/>
  </g>
  <g id="size14">
    <path class="st0" d="M1359,438.3c188.4-.6,209.2-244.3,209.2-244.3l381.6,110s-247.4,642.1,264.5,602.7c0,0-77.4,358.3-20.7,584.1,56.7,225.8,95.9,408.6,91.7,737h-926.4s-926.4,0-926.4,0c-4.2-328.4,35-511.2,91.7-737,56.7-225.8-20.7-584.1-20.7-584.1,512,39.4,264.5-602.7,264.5-602.7l381.6-110s20.8,243.7,209.2,244.3Z"/>
  </g>
  <g id="size12">
    <path class="st0" d="M1359,2203.1h889.1c-4.6-377.1-24.7-494.3-90.5-719-65.8-224.8,20.7-584.1,20.7-584.1-493.2,12.9-246.5-584.7-246.5-584.7l-372.5-110.7s-30.2,231.6-200.4,234c-170.1-2.4-200.4-234-200.4-234l-372.5,110.7s246.7,597.6-246.5,584.7c0,0,86.5,359.3,20.7,584.1s-85.8,342-90.5,719h889.1Z"/>
  </g>
  <g id="size10">
    <path class="st0" d="M1359,2175l854.4-.8c19.7-348.9-90.4-693.5-90.4-693.5-60.9-200.4,18-591.6,18-591.6-465.2,10.9-227.8-566.8-227.8-566.8l-362.9-110.6c-53.9,245.8-191.4,225-191.4,225,0,0-137.4,20.8-191.4-225l-362.9,110.6s237.4,577.7-227.8,566.8c0,0,79,391.2,18,591.6,0,0-110.1,344.5-90.4,693.5l854.4.8Z"/>
  </g>
  <g id="size8">
    <path class="st0" d="M1358.1,2145.5h820.4c11.7-346.6-93-675.5-93-675.5-65.7-192.8,19.4-591.6,19.4-591.6-427.1-3.4-210.5-548.8-210.5-548.8l-354-109.9s-48.3,218.4-181.3,218.8h0c-133-.4-181.3-218.8-181.3-218.8l-354,109.9s216.7,545.3-210.5,548.8c0,0,85.1,398.8,19.4,591.6,0,0-104.7,328.9-93,675.5h818.6"/>
  </g>
  <g id="size6">
    <path class="st0" d="M1359,2120h782.7c6.4-294-33.1-418.9-91.3-657.5-58.2-238.6,19.4-591.6,19.4-591.6-398.3-9.2-191.9-530.7-191.9-530.7l-345.6-110c-49.9,208.6-173.2,206.3-173.2,206.3,0,0-123.3,2.3-173.2-206.3l-345.6,110s206.5,521.4-191.9,530.7c0,0,77.5,353,19.4,591.6-58.2,238.6-97.7,363.5-91.3,657.5h782.7Z"/>
  </g>
  <g id="size4">
    <path class="st0" d="M1359,2092.8h746.7c4.9-252-32.3-405.2-91.3-639.5-59.1-234.3,19.4-591.6,19.4-591.6-373.3.8-174.5-512.9-174.5-512.9l-336-109.8c-39.3,182.4-164.2,197.3-164.2,197.3,0,0-124.9-15-164.2-197.3l-336,109.8s198.9,513.7-174.5,512.9c0,0,78.4,357.3,19.4,591.6-59.1,234.3-96.2,387.5-91.3,639.5h746.7Z"/>
  </g>
  <g id="size2">
    <path class="st0" d="M1359,2066.3h710.7c9.8-242.8-35.8-414.6-92.7-645.6-56.9-230.9,20.7-567.6,20.7-567.6-335.5-10.5-155.9-494.7-155.9-494.7l-327.6-110c-31.3,187.2-155.2,188.3-155.2,188.3,0,0-123.9-1.1-155.2-188.3l-327.6,110s179.7,484.2-155.9,494.7c0,0,77.6,336.7,20.7,567.6-56.9,230.9-102.5,402.7-92.7,645.6h710.7Z"/>
  </g>
  <g id="size0">
    <path class="st0" d="M1359,2038.8h674.2c9.8-239.3-35.8-408.6-92.7-636.2-56.9-227.6,20.6-558.9,20.6-558.9-301-1.8-137.3-476.7-137.3-476.7l-318.6-110c-25.2,174.9-146.2,179.3-146.2,179.3,0,0-121-4.4-146.2-179.3l-318.6,110s163.7,474.9-137.3,476.7c0,0,77.5,331.3,20.6,558.9-56.9,227.6-102.5,396.9-92.7,636.2h674.2Z"/>
  </g>
</svg>