<?xml version="1.0" encoding="UTF-8"?>
<svg id="Layer_1" xmlns="http://www.w3.org/2000/svg" version="1.1" viewBox="0 0 2000 1600">
  <!-- Generator: Adobe Illustrator 30.0.0, SVG Export Plug-In . SVG Version: 2.1.1 Build 123)  -->
  <defs>
    <style>
      .st1 {
        stroke-width: 4px;
      }

      .st0, .st1 {
        stroke: #B57BDC;
        stroke-dasharray: 8;
        stroke-width: 4px;
      }

      .st0, .st1, .st2 {
        fill: none;
        stroke-miterlimit: 10;
      }

      .st0 {
        stroke-dasharray: 8;
        stroke-width: 4px;
      }

      .st2 {
        stroke: #C2D932;
        stroke-width: 8px;
      }

      #size0, #size3, #size4, #size6, #size10, #size12, #size14, #size16 {
        opacity: 0;
      }
    </style>
  </defs>
  <g id="size16">
    <path class="st1" d="M1000,1651.7h724.3c4.7-274.8-28.6-370.8-68.2-569s14.6-440.2,14.6-440.2c-409.5,21.9-211.9-467.7-211.9-467.7l-294.3-82.9s-5.7,190.5-164.4,191c-158.8-.5-164.4-191-164.4-191l-294.3,82.9s197.7,489.6-211.9,467.7c0,0,54.2,242.1,14.6,440.2-39.6,198.1-72.8,294.1-68.2,569h724.3"/>
  </g>
  <g id="size14">
    <path class="st1" d="M1000,283.6c142-.5,157.6-184.1,157.6-184.1l287.6,82.9s-186.4,483.9,199.3,454.2c0,0-58.3,270-15.6,440.2s72.3,307.9,69.1,555.4H301.8c-3.2-247.5,26.4-385.2,69.1-555.4,42.7-170.2-15.6-440.2-15.6-440.2,385.8,29.7,199.3-454.2,199.3-454.2l287.6-82.9s15.7,183.6,157.6,184.1h.2Z"/>
  </g>
  <g id="size12">
    <path class="st1" d="M1000,1613.5h670c-3.5-284.2-18.6-372.5-68.2-541.8-49.6-169.4,15.6-440.2,15.6-440.2-371.7,9.7-185.8-440.6-185.8-440.6l-280.7-83.4s-22.8,174.5-151,176.3c-128.2-1.8-151-176.3-151-176.3l-280.7,83.4s185.9,450.3-185.8,440.6c0,0,65.2,270.8,15.6,440.2-49.6,169.4-64.7,257.7-68.2,541.8h670.2Z"/>
  </g>
  <g id="size10">
    <path class="st1" d="M1000,1592.3l643.9-.6c14.8-262.9-68.1-522.6-68.1-522.6-45.9-151,13.6-445.8,13.6-445.8-350.6,8.2-171.7-427.1-171.7-427.1l-273.5-83.3c-40.6,185.2-144.2,169.6-144.2,169.6,0,0-103.5,15.7-144.2-169.6l-273.5,83.3s178.9,435.3-171.7,427.1c0,0,59.5,294.8,13.6,445.8,0,0-83,259.6-68.1,522.6l643.9.6h.2Z"/>
  </g>
  <g id="size6">
    <path class="st1" d="M1000,1550.9h589.8c4.8-221.6-24.9-315.7-68.8-495.5s14.6-445.8,14.6-445.8c-300.2-6.9-144.6-399.9-144.6-399.9l-260.4-82.9c-37.6,157.2-130.5,155.5-130.5,155.5,0,0-92.9,1.7-130.5-155.5l-260.4,82.9s155.6,392.9-144.6,399.9c0,0,58.4,266,14.6,445.8-43.9,179.8-73.6,273.9-68.8,495.5h589.8-.2,0Z"/>
  </g>
  <g id="size4">
    <path class="st1" d="M1000,1530.4h562.7c3.7-189.9-24.3-305.4-68.8-481.9-44.5-176.6,14.6-445.8,14.6-445.8-281.3.6-131.5-386.5-131.5-386.5l-253.2-82.7c-29.6,137.5-123.7,148.7-123.7,148.7,0,0-94.1-11.3-123.7-148.7l-253.2,82.7s149.9,387.1-131.5,386.5c0,0,59.1,269.3,14.6,445.8-44.5,176.6-72.5,292-68.8,481.9h562.7-.2,0Z"/>
  </g>
  <g id="size2">
    <path class="st1" d="M1000,1510.4h535.6c7.4-183-27-312.4-69.9-486.5-42.9-174,15.6-427.7,15.6-427.7-252.8-7.9-117.5-372.8-117.5-372.8l-246.9-82.9c-23.6,141.1-117,141.9-117,141.9,0,0-93.4-.8-117-141.9l-246.9,82.9s135.4,364.9-117.5,372.8c0,0,58.5,253.7,15.6,427.7-42.9,174-77.2,303.5-69.9,486.5h535.6Z"/>
  </g>
  <g id="size0">
    <path class="st1" d="M1000,1489.7h508.1c7.4-180.3-27-307.9-69.9-479.4-42.9-171.5,15.5-421.2,15.5-421.2-226.8-1.4-103.5-359.2-103.5-359.2l-240.1-82.9c-19,131.8-110.2,135.1-110.2,135.1,0,0-91.2-3.3-110.2-135.1l-240.1,82.9s123.4,357.9-103.5,359.2c0,0,58.4,249.7,15.5,421.2-42.9,171.5-77.2,299.1-69.9,479.4h508.1Z"/>
  </g>
  <g id="size8">
    <path class="st2" d="M999.3,1570.1h618.2c8.8-261.2-70.1-509-70.1-509-49.5-145.3,14.6-445.8,14.6-445.8-321.9-2.6-158.6-413.6-158.6-413.6l-266.8-82.8s-36.4,164.6-136.6,164.9h0c-100.2-.3-136.6-164.9-136.6-164.9l-266.8,82.8s163.3,410.9-158.6,413.6c0,0,64.1,300.5,14.6,445.8,0,0-78.9,247.9-70.1,509h616.9"/>
  </g>
</svg>