<?xml version="1.0" encoding="UTF-8"?>
<svg id="Layer_1" xmlns="http://www.w3.org/2000/svg" version="1.1" viewBox="0 0 2000 2000">
  <!-- Generator: Adobe Illustrator 30.0.0, SVG Export Plug-In . SVG Version: 2.1.1 Build 123)  -->
  <defs>
    <style>
      .st1 {
        stroke-width: 4px;
      }

      .st0, .st1 {
        stroke: #C2D932;
      }

      .st0, .st1, .st2 {
        fill: none;
        stroke-miterlimit: 10;
      }

      .st0 {
        stroke-dasharray: 8;
        stroke-width: 4px;
      }

      .st2 {
        stroke: #C2D932;
        stroke-width: 8px;
      }
    </style>
  </defs>
  <g id="mock32">
    <path class="st0" d="M1000,1909.1h979c6.3-320.2-38.6-432-92.2-662.8-53.6-230.8,19.8-512.8,19.8-512.8-553.5,25.5-286.4-544.9-286.4-544.9l-397.9-96.6s-7.6,221.9-222.3,222.6c-214.6-.5-222.3-222.6-222.3-222.6l-397.9,96.6S647.1,758.9,93.5,733.5c0,0,73.2,282,19.8,512.8-53.6,230.8-98.4,342.7-92.2,662.8h979"/>
  </g>
  <g id="mock30">
    <path class="st0" d="M1000,1875.9h944.9c6.1-314.3-37.3-424.1-89-650.7-51.7-226.6,19.1-503.4,19.1-503.4-534.3,25.1-276.5-535-276.5-535l-384-94.8s-7.4,217.9-214.5,218.5c-207.2-.5-214.5-218.5-214.5-218.5l-384,94.8S659.3,746.7,125,721.7c0,0,70.7,276.8,19.1,503.4-51.7,226.6-95,336.4-89,650.7h944.9"/>
  </g>
  <g id="mock28">
    <path class="st0" d="M1000,1837.6h909.2c5.9-307.6-35.9-415-85.6-636.8-49.8-221.7,18.4-492.6,18.4-492.6-514.1,24.5-266-523.5-266-523.5l-369.5-92.8s-7.1,213.2-206.4,213.8c-199.3-.5-206.4-213.8-206.4-213.8l-369.5,92.8s248.1,548-266,523.5c0,0,68,270.9,18.4,492.6-49.8,221.7-91.4,329.2-85.6,636.8h909.2"/>
  </g>
  <g id="mock26">
    <path class="st0" d="M1000,1804.4h881.1c5.7-301.7-34.7-407.1-83-624.7-48.2-217.5,17.8-483.3,17.8-483.3-498.2,24.1-257.8-513.5-257.8-513.5l-358.1-91s-6.9,209.2-200,209.7c-193.2-.5-200-209.7-200-209.7l-358.1,91s240.5,537.5-257.8,513.5c0,0,65.9,265.7,17.8,483.3-48.2,217.5-88.6,322.9-83,624.7h881.1"/>
  </g>
  <g id="mock24">
    <path class="st0" d="M1000,1773.8h848c5.5-296.3-33.4-399.9-79.8-613.5-46.4-213.6,17.1-474.6,17.1-474.6-479.4,23.6-248.1-504.4-248.1-504.4l-344.6-89.4s-6.6,205.4-192.5,206c-185.9-.5-192.5-206-192.5-206l-344.6,89.4s231.4,527.9-248.1,504.4c0,0,63.4,261,17.1,474.6-46.4,213.6-85.2,317.1-79.8,613.5h848"/>
  </g>
  <g id="mock22">
    <path class="st0" d="M1000,1740.6h819.9c5.3-290.5-32.3-392-77.2-601.4-44.9-209.4,16.5-465.2,16.5-465.2-463.6,23.2-239.9-494.4-239.9-494.4l-333.2-87.6s-6.4,201.4-186.1,201.9c-179.7-.5-186.1-201.9-186.1-201.9l-333.2,87.6s223.8,517.5-239.9,494.4c0,0,61.3,255.8,16.5,465.2-44.9,209.4-82.4,310.9-77.2,601.4h819.9"/>
  </g>
  <g id="mock20">
    <path class="st0" d="M1000,1709.9h786.7c5.1-285.1-31-384.7-74.1-590.2s15.9-456.6,15.9-456.6c-444.8,22.7-230.2-485.2-230.2-485.2l-319.7-86s-6.1,197.6-178.6,198.2c-172.5-.5-178.6-198.2-178.6-198.2l-319.7,86s214.7,507.9-230.2,485.2c0,0,58.9,251.1,15.9,456.6-43.1,205.5-79.1,305.1-74.1,590.2h786.7"/>
  </g>
  <g id="mock18">
    <path class="st0" d="M1000,1681.9h756.1c4.9-280.1-29.8-378-71.2-579.9s15.3-448.7,15.3-448.7c-427.5,22.4-221.2-476.8-221.2-476.8l-307.3-84.5s-5.9,194.2-171.7,194.7c-165.8-.5-171.7-194.7-171.7-194.7l-307.3,84.5s206.4,499.1-221.2,476.8c0,0,56.6,246.7,15.3,448.7-41.4,201.9-76,299.8-71.2,579.9h756.1"/>
  </g>
  <g id="size16">
    <path class="st1" d="M1000,1651.7h724.3c4.7-274.8-28.6-370.8-68.2-569s14.6-440.2,14.6-440.2c-409.5,21.9-211.9-467.7-211.9-467.7l-294.3-82.9s-5.7,190.5-164.4,191c-158.8-.5-164.4-191-164.4-191l-294.3,82.9s197.7,489.6-211.9,467.7c0,0,54.2,242.1,14.6,440.2-39.6,198.1-72.8,294.1-68.2,569h724.3"/>
  </g>
  <g id="size14">
    <path class="st1" d="M1000,283.6c142-.5,157.6-184.1,157.6-184.1l287.6,82.9s-186.4,483.9,199.3,454.2c0,0-58.3,270-15.6,440.2s72.3,307.9,69.1,555.4H301.8c-3.2-247.5,26.4-385.2,69.1-555.4,42.7-170.2-15.6-440.2-15.6-440.2,385.8,29.7,199.3-454.2,199.3-454.2l287.6-82.9s15.7,183.6,157.6,184.1h.2Z"/>
  </g>
  <g id="size12">
    <path class="st1" d="M1000,1613.5h670c-3.5-284.2-18.6-372.5-68.2-541.8-49.6-169.4,15.6-440.2,15.6-440.2-371.7,9.7-185.8-440.6-185.8-440.6l-280.7-83.4s-22.8,174.5-151,176.3c-128.2-1.8-151-176.3-151-176.3l-280.7,83.4s185.9,450.3-185.8,440.6c0,0,65.2,270.8,15.6,440.2-49.6,169.4-64.7,257.7-68.2,541.8h670.2Z"/>
  </g>
  <g id="size10">
    <path class="st1" d="M1000,1592.3l643.9-.6c14.8-262.9-68.1-522.6-68.1-522.6-45.9-151,13.6-445.8,13.6-445.8-350.6,8.2-171.7-427.1-171.7-427.1l-273.5-83.3c-40.6,185.2-144.2,169.6-144.2,169.6,0,0-103.5,15.7-144.2-169.6l-273.5,83.3s178.9,435.3-171.7,427.1c0,0,59.5,294.8,13.6,445.8,0,0-83,259.6-68.1,522.6l643.9.6h.2Z"/>
  </g>
  <g id="size6">
    <path class="st1" d="M1000,1550.9h589.8c4.8-221.6-24.9-315.7-68.8-495.5s14.6-445.8,14.6-445.8c-300.2-6.9-144.6-399.9-144.6-399.9l-260.4-82.9c-37.6,157.2-130.5,155.5-130.5,155.5,0,0-92.9,1.7-130.5-155.5l-260.4,82.9s155.6,392.9-144.6,399.9c0,0,58.4,266,14.6,445.8-43.9,179.8-73.6,273.9-68.8,495.5h589.8-.2,0Z"/>
  </g>
  <g id="size4">
    <path class="st1" d="M1000,1530.4h562.7c3.7-189.9-24.3-305.4-68.8-481.9-44.5-176.6,14.6-445.8,14.6-445.8-281.3.6-131.5-386.5-131.5-386.5l-253.2-82.7c-29.6,137.5-123.7,148.7-123.7,148.7,0,0-94.1-11.3-123.7-148.7l-253.2,82.7s149.9,387.1-131.5,386.5c0,0,59.1,269.3,14.6,445.8-44.5,176.6-72.5,292-68.8,481.9h562.7-.2,0Z"/>
  </g>
  <g id="size2">
    <path class="st1" d="M1000,1510.4h535.6c7.4-183-27-312.4-69.9-486.5-42.9-174,15.6-427.7,15.6-427.7-252.8-7.9-117.5-372.8-117.5-372.8l-246.9-82.9c-23.6,141.1-117,141.9-117,141.9,0,0-93.4-.8-117-141.9l-246.9,82.9s135.4,364.9-117.5,372.8c0,0,58.5,253.7,15.6,427.7-42.9,174-77.2,303.5-69.9,486.5h535.6Z"/>
  </g>
  <g id="size0">
    <path class="st1" d="M1000,1489.7h508.1c7.4-180.3-27-307.9-69.9-479.4-42.9-171.5,15.5-421.2,15.5-421.2-226.8-1.4-103.5-359.2-103.5-359.2l-240.1-82.9c-19,131.8-110.2,135.1-110.2,135.1,0,0-91.2-3.3-110.2-135.1l-240.1,82.9s123.4,357.9-103.5,359.2c0,0,58.4,249.7,15.5,421.2-42.9,171.5-77.2,299.1-69.9,479.4h508.1Z"/>
  </g>
  <g id="mock18" data-name="mock18">
    <path class="st0" d="M1000,1467.4h478.7c7-177.3-25.4-302.8-65.8-471.5-40.4-168.7,14.6-414.2,14.6-414.2-213.7-1.3-97.5-353.3-97.5-353.3l-226.2-81.5c-17.9,129.6-103.8,132.9-103.8,132.9,0,0-85.9-3.3-103.8-132.9l-226.2,81.5s116.2,351.9-97.5,353.3c0,0,55,245.5,14.6,414.2-40.4,168.7-72.8,294.1-65.8,471.5h478.7Z"/>
  </g>
  <g id="mock20" data-name="mock20">
    <path class="st0" d="M1000,1447h451.9c6.6-174.6-24-298.1-62.1-464.2-38.1-166.1,13.8-407.8,13.8-407.8-201.7-1.3-92-347.8-92-347.8l-213.5-80.3c-16.9,127.6-98,130.8-98,130.8,0,0-81.1-3.2-98-130.8l-213.5,80.3s109.7,346.5-92,347.8c0,0,51.9,241.7,13.8,407.8-38.1,166.1-68.7,289.6-62.1,464.2h451.9Z"/>
  </g>
  <g id="mock22" data-name="mock22">
    <path class="st0" d="M1000,1425.3h417c6.1-171.7-22.1-293.1-57.3-456.4-35.2-163.3,12.7-401,12.7-401-186.2-1.3-84.9-342-84.9-342l-197.1-78.9c-15.6,125.5-90.4,128.6-90.4,128.6,0,0-74.8-3.2-90.4-128.6l-197.1,78.9s101.2,340.7-84.9,342c0,0,47.9,237.7,12.7,401-35.2,163.3-63.4,284.7-57.3,456.4h417Z"/>
  </g>
  <g id="mock24" data-name="mock24">
    <path class="st0" d="M1000,1404.8h388.1c5.6-168.9-20.6-288.5-53.4-449.1-32.8-160.7,11.9-394.6,11.9-394.6-173.3-1.3-79-336.5-79-336.5l-183.4-77.7c-14.5,123.5-84.2,126.6-84.2,126.6,0,0-69.7-3.1-84.2-126.6l-183.4,77.7s94.2,335.3-79,336.5c0,0,44.6,233.9,11.9,394.6-32.8,160.7-59,280.2-53.4,449.1h388.1Z"/>
  </g>
  <g id="mock26" data-name="mock26">
    <path class="st0" d="M1000,1383.1h359.2c5.2-166-19.1-283.5-49.4-441.4-30.3-157.9,11-387.7,11-387.7-160.4-1.2-73.2-330.7-73.2-330.7l-169.8-76.3c-13.4,121.3-77.9,124.4-77.9,124.4,0,0-64.5-3.1-77.9-124.4l-169.8,76.3s87.2,329.5-73.2,330.7c0,0,41.3,229.8,11,387.7-30.3,157.9-54.6,275.4-49.4,441.4h359.2Z"/>
  </g>
  <g id="mock28" data-name="mock28">
    <path class="st0" d="M1000,1357.6h328.7c4.8-162.6-17.5-277.6-45.2-432.3-27.7-154.6,10-379.7,10-379.7-146.7-1.2-66.9-323.9-66.9-323.9l-155.3-74.7c-12.3,118.8-71.3,121.8-71.3,121.8,0,0-59-3-71.3-121.8l-155.3,74.7s79.8,322.7-66.9,323.9c0,0,37.8,225.1,10,379.7-27.7,154.6-50,269.7-45.2,432.3h328.7Z"/>
  </g>
  <g id="mock30" data-name="mock30">
    <path class="st0" d="M1000,1330.4h291.3c4.2-158.9-15.5-271.4-40.1-422.5-24.6-151.2,8.9-371.2,8.9-371.2-130-1.2-59.3-316.6-59.3-316.6l-137.6-73.1c-10.9,116.2-63.2,119.1-63.2,119.1,0,0-52.3-2.9-63.2-119.1l-137.6,73.1s70.7,315.4-59.3,316.6c0,0,33.5,220,8.9,371.2-24.6,151.2-44.3,263.6-40.1,422.5h291.3Z"/>
  </g>
  <g id="mock32" data-name="mock32">
    <path class="st0" d="M1000,1304h260.7c3.8-155.4-13.8-265.3-35.8-413.1-22-147.8,8-362.9,8-362.9-116.4-1.2-53.1-309.5-53.1-309.5l-123.2-71.4c-9.7,113.6-56.5,116.4-56.5,116.4,0,0-46.8-2.9-56.5-116.4l-123.2,71.4s63.3,308.4-53.1,309.5c0,0,30,215.1,8,362.9-22,147.8-39.6,257.7-35.8,413.1h260.7Z"/>
  </g>
  <g id="size8">
    <path class="st2" d="M999.3,1570.1h618.2c8.8-261.2-70.1-509-70.1-509-49.5-145.3,14.6-445.8,14.6-445.8-321.9-2.6-158.6-413.6-158.6-413.6l-266.8-82.8s-36.4,164.6-136.6,164.9h0c-100.2-.3-136.6-164.9-136.6-164.9l-266.8,82.8s163.3,410.9-158.6,413.6c0,0,64.1,300.5,14.6,445.8,0,0-78.9,247.9-70.1,509h616.9"/>
  </g>
</svg>